# xmcd
#
# Track frame offsets:
#	300
#	12466
#	27198
#	46618
#	61987
#	85227
#	98771
#	110510
#	131018
#	143818
#	160846
#	184265
#	197733
#	208586
#	221017
#	232160
#	233737
#
# Disc length: 3606 seconds
#
# Revision: 1
# Processed by: cddbd v1.5.1PL2 Copyright (c) Steve Scherf et al.
# Submitted via: EasyCDDAExtractor 5.0.6
#
DISCID=ee0e1211
DTITLE=Various Artist - Annie - DJ-Kicks
DYEAR=2005
DGENRE=Electronic
TTITLE0=Toy - Rabbit Pushing Moon
TTITLE1=La Bionda - I Wanna Be Your Lover
TTITLE2=Alan Vega - Jukebox Babe
TTITLE3=Le Tigre - Nanny Boo Boo (Junior Senior Mix)
TTITLE4=Zongamin - Bongo Song
TTITLE5=Liquid Liquid - Flextone (DJ Twitch Optimo Edit)
TTITLE6=Annie - Wedding (Live Mix)
TTITLE7=Death From Above 1979 - Black History Month (Alan Braxxe and Fred Falke 
TTITLE7=Remix)
TTITLE8=Motiivi:Tuntematon - 1939
TTITLE9=Brundtland And Therson - Geared Up
TTITLE10=Bumblebee Unlimited - Lady Bug (I Just Wanna Be Your)
TTITLE11=Annie - Gimme Your Money
TTITLE12=Bow Wow Wow - I Want Candy
TTITLE13=ESG - My Love For You
TTITLE14=Gucci Crew II - Sally 'That Girl'
TTITLE15=Mu - Paris Hilton
TTITLE16=Datarock - Fa Fa Fa
EXTD=
EXTT0=
EXTT1=
EXTT2=
EXTT3=
EXTT4=
EXTT5=
EXTT6=
EXTT7=
EXTT8=
EXTT9=
EXTT10=
EXTT11=
EXTT12=
EXTT13=
EXTT14=
EXTT15=
EXTT16=
PLAYORDER=
